<mxfile host="app.diagrams.net" modified="2024-03-22T06:54:30.592Z" agent="Mozilla/5.0 (Windows NT 10.0; Win64; x64) AppleWebKit/537.36 (KHTML, like Gecko) Chrome/123.0.0.0 Safari/537.36" version="24.0.7" etag="kE10k_Ym2g0jhb3gghJm" type="github">
  <diagram name="페이지-1" id="POaBN9FkFQydPK2bKJ5Z">
    <mxGraphModel>
      <root>
        <mxCell id="0" />
        <mxCell id="1" parent="0" />
      </root>
    </mxGraphModel>
  </diagram>
</mxfile>
